<svg width="148" height="48" viewBox="0 0 148 48" fill="none" xmlns="http://www.w3.org/2000/svg">
<path d="M29.5776 37.56C28.4736 37.56 27.4576 37.328 26.5296 36.864C25.6016 36.384 24.8576 35.696 24.2976 34.8C23.7376 33.904 23.4576 32.824 23.4576 31.56C23.4576 30.296 23.7376 29.216 24.2976 28.32C24.8576 27.424 25.6016 26.744 26.5296 26.28C27.4576 25.8 28.4736 25.56 29.5776 25.56C30.6176 25.56 31.5456 25.76 32.3616 26.16C33.1777 26.56 33.8176 27.184 34.2817 28.032C34.7617 28.88 35.0016 29.976 35.0016 31.32H26.4576V30.48H31.2816C31.2176 29.088 31.0256 28.064 30.7056 27.408C30.4016 26.736 29.9456 26.4 29.3376 26.4C28.9056 26.4 28.5376 26.616 28.2336 27.048C27.9296 27.464 27.6976 28.064 27.5376 28.848C27.3776 29.616 27.2976 30.52 27.2976 31.56C27.2976 32.584 27.4096 33.456 27.6336 34.176C27.8736 34.88 28.2256 35.424 28.6896 35.808C29.1536 36.176 29.7376 36.36 30.4416 36.36C31.2416 36.36 31.9617 36.168 32.6017 35.784C33.2577 35.4001 33.8017 34.976 34.2337 34.512L34.8816 35.064C34.5456 35.4641 34.1536 35.856 33.7057 36.24C33.2737 36.624 32.7297 36.944 32.0737 37.2C31.4177 37.44 30.5856 37.56 29.5776 37.56Z" fill="url(#paint0_linear_113_154)"/>
<path d="M41.3123 36.24L41.5523 36.48H42.7523V37.32H36.3923V36.48H37.5923L37.8323 36.24V26.88L37.5923 26.64H36.3923V25.8H42.7523V26.64H41.5523L41.3123 26.88V36.24ZM49.1123 36.24L49.3523 36.48H50.5523V37.32H44.1923V36.48H45.3923L45.6323 36.24V26.88L45.3923 26.64H44.1923V25.8H50.5523V26.64H49.3523L49.1123 26.88V36.24ZM45.6323 29.304L41.3123 35.28V33.84L45.6323 27.864V29.304ZM39.5363 21.48C39.5363 21.112 39.6803 20.816 39.9683 20.592C40.2563 20.368 40.5683 20.256 40.9043 20.256C41.2403 20.256 41.5363 20.376 41.7923 20.616C42.0643 20.84 42.2003 21.112 42.2003 21.432C42.2003 21.64 42.1363 21.832 42.0083 22.008C41.8803 22.168 41.7283 22.288 41.5523 22.368C41.7603 22.608 42.0083 22.784 42.2963 22.896C42.6003 23.008 42.9523 23.064 43.3523 23.064C43.7523 23.064 44.1203 23.008 44.4563 22.896C44.7923 22.784 45.0403 22.608 45.2003 22.368C44.9923 22.288 44.8243 22.168 44.6963 22.008C44.5683 21.832 44.5043 21.624 44.5043 21.384C44.5043 21.064 44.6323 20.8 44.8883 20.592C45.1443 20.368 45.4403 20.256 45.7763 20.256C46.0963 20.256 46.4003 20.368 46.6883 20.592C46.9923 20.8 47.1443 21.112 47.1443 21.528C47.1443 22.008 46.9363 22.416 46.5203 22.752C46.1203 23.088 45.6243 23.344 45.0323 23.52C44.4563 23.68 43.8883 23.76 43.3283 23.76C42.2563 23.76 41.3523 23.544 40.6163 23.112C39.8963 22.664 39.5363 22.12 39.5363 21.48Z" fill="url(#paint1_linear_113_154)"/>
<path d="M68.2017 26.64L68.0817 26.76V36.24L68.3217 36.48H69.6417V37.32H63.0417V36.48H64.1217L64.3617 36.24V28.92H64.2417L60.7617 37.08H58.9617L55.2417 28.68H55.1217V36.264L55.3617 36.48H57.1617V37.32H52.0017V36.48H53.8017L54.0417 36.264V26.88L53.8017 26.64H52.0017V25.8H57.7377L61.0737 33.48H61.1937L64.4817 25.8H69.6417V26.64H68.2017Z" fill="url(#paint2_linear_113_154)"/>
<path d="M71.0798 37.32V36.48H72.3998L72.6398 36.24V22.32L72.3998 22.08H71.0798V21.24H77.9198V22.08H76.5998L76.3598 22.32V36.24L76.5998 36.48H77.9198V37.32H71.0798ZM76.3358 29.28V28.44C77.2638 28.44 78.0238 28.304 78.6158 28.032C79.2238 27.76 79.7198 27.408 80.1038 26.976C80.4878 26.528 80.8078 26.04 81.0638 25.512C81.3198 24.984 81.5518 24.456 81.7598 23.928C81.9838 23.4 82.2318 22.92 82.5038 22.488C82.7918 22.04 83.1518 21.68 83.5838 21.408C84.0318 21.136 84.5998 21 85.2878 21C85.9438 21 86.4478 21.192 86.7998 21.576C87.1678 21.944 87.3598 22.392 87.3758 22.92C87.4078 23.416 87.2398 23.864 86.8718 24.264C86.5038 24.664 86.0398 24.864 85.4798 24.864C85.0798 24.864 84.6878 24.72 84.3038 24.432C83.9198 24.128 83.6798 23.68 83.5838 23.088C83.2478 23.52 82.9678 23.96 82.7438 24.408C82.5198 24.856 82.3118 25.304 82.1198 25.752C81.9278 26.184 81.7118 26.592 81.4718 26.976C81.2318 27.36 80.9278 27.712 80.5598 28.032C80.1918 28.336 79.7198 28.584 79.1438 28.776V28.44C79.6718 28.424 80.1438 28.44 80.5598 28.488C80.9918 28.536 81.3838 28.68 81.7358 28.92C82.0878 29.144 82.4238 29.544 82.7438 30.12L85.5038 35.232C85.7758 35.728 86.0638 36.048 86.3678 36.192C86.6718 36.32 87.0478 36.416 87.4958 36.48V37.32H82.4798L78.7838 30.648C78.5438 30.216 78.3198 29.904 78.1118 29.712C77.9038 29.52 77.6638 29.4 77.3918 29.352C77.1358 29.304 76.7838 29.28 76.3358 29.28Z" fill="url(#paint3_linear_113_154)"/>
<path d="M96.4926 25.56C97.5326 25.56 98.4526 25.8 99.2526 26.28C100.053 26.76 100.677 27.448 101.125 28.344C101.573 29.224 101.797 30.28 101.797 31.512C101.797 32.744 101.573 33.816 101.125 34.728C100.677 35.624 100.053 36.32 99.2526 36.816C98.4526 37.312 97.5326 37.56 96.4926 37.56C95.6126 37.56 94.8687 37.3601 94.2607 36.96C93.6686 36.544 93.2206 36.024 92.9166 35.4V42.24L93.1566 42.48H95.0766V43.32H87.9967V42.48H89.1966L89.4366 42.24V26.904L89.1966 26.664H87.9967V25.824C88.4127 25.824 88.8847 25.824 89.4127 25.824C89.9407 25.808 90.4687 25.784 90.9967 25.752C91.5406 25.704 92.0206 25.648 92.4366 25.584L92.6767 25.824V27.72H92.9166C93.2206 27.16 93.6846 26.664 94.3086 26.232C94.9326 25.784 95.6606 25.56 96.4926 25.56ZM95.6767 36.24C96.3486 36.24 96.8926 35.896 97.3086 35.208C97.7406 34.5041 97.9566 33.368 97.9566 31.8C97.9566 30.232 97.7406 29.024 97.3086 28.176C96.8926 27.312 96.3486 26.88 95.6767 26.88C95.2607 26.88 94.8046 27.064 94.3086 27.432C93.8286 27.8 93.3646 28.496 92.9166 29.52V33.6C93.3646 34.624 93.8286 35.32 94.3086 35.688C94.8046 36.056 95.2607 36.24 95.6767 36.24Z" fill="url(#paint4_linear_113_154)"/>
<path d="M113.337 37.56C112.793 37.56 112.321 37.472 111.921 37.296C111.537 37.12 111.201 36.808 110.913 36.36V30C110.913 28.992 110.745 28.184 110.409 27.576C110.089 26.952 109.449 26.64 108.489 26.64C108.137 26.64 107.809 26.68 107.505 26.76C107.201 26.824 106.897 26.928 106.593 27.072C106.849 27.232 107.049 27.44 107.193 27.696C107.353 27.952 107.433 28.24 107.433 28.56C107.433 29.04 107.273 29.44 106.953 29.76C106.633 30.08 106.233 30.24 105.753 30.24C105.273 30.24 104.873 30.08 104.553 29.76C104.233 29.424 104.073 28.984 104.073 28.44C104.073 27.928 104.241 27.496 104.577 27.144C104.929 26.776 105.385 26.48 105.945 26.256C106.505 26.016 107.105 25.84 107.745 25.728C108.401 25.616 109.025 25.56 109.617 25.56C110.433 25.56 111.201 25.68 111.921 25.92C112.657 26.16 113.249 26.576 113.697 27.168C114.161 27.744 114.393 28.568 114.393 29.64V34.824C114.393 35.048 114.449 35.264 114.561 35.472C114.673 35.6641 114.857 35.76 115.113 35.76C115.289 35.76 115.449 35.712 115.593 35.616C115.753 35.504 115.897 35.368 116.025 35.208L116.673 35.76C116.481 36.032 116.249 36.312 115.977 36.6C115.721 36.872 115.385 37.104 114.969 37.296C114.553 37.472 114.009 37.56 113.337 37.56ZM107.673 37.56C106.409 37.56 105.369 37.2561 104.553 36.648C103.753 36.04 103.353 35.224 103.353 34.2C103.353 33.192 103.753 32.384 104.553 31.776C105.353 31.152 106.393 30.84 107.673 30.84C108.569 30.84 109.265 30.976 109.761 31.248C110.273 31.504 110.657 31.768 110.913 32.04V33.192C110.577 32.792 110.209 32.496 109.809 32.304C109.409 32.096 109.009 31.992 108.609 31.992C108.017 31.992 107.569 32.2 107.265 32.616C106.977 33.016 106.833 33.544 106.833 34.2C106.833 34.84 106.977 35.368 107.265 35.784C107.569 36.2001 108.017 36.408 108.609 36.408C109.009 36.408 109.409 36.312 109.809 36.12C110.209 35.912 110.577 35.6081 110.913 35.208V36.36C110.657 36.632 110.273 36.904 109.761 37.176C109.265 37.432 108.569 37.56 107.673 37.56Z" fill="url(#paint5_linear_113_154)"/>
<path d="M129.929 37.56C129.065 37.56 128.321 37.3601 127.697 36.96V35.64C127.953 35.848 128.201 36 128.441 36.096C128.681 36.192 128.905 36.24 129.113 36.24C129.785 36.24 130.329 35.896 130.745 35.208C131.177 34.5041 131.393 33.368 131.393 31.8C131.393 30.232 131.177 29.024 130.745 28.176C130.329 27.312 129.785 26.88 129.113 26.88C128.905 26.88 128.681 26.928 128.441 27.024C128.201 27.104 127.953 27.256 127.697 27.48V26.256C128.017 26.032 128.361 25.864 128.729 25.752C129.113 25.624 129.513 25.56 129.929 25.56C130.969 25.56 131.865 25.8 132.617 26.28C133.385 26.76 133.969 27.448 134.369 28.344C134.785 29.224 134.993 30.28 134.993 31.512C134.993 32.744 134.785 33.816 134.369 34.728C133.969 35.624 133.385 36.32 132.617 36.816C131.865 37.312 130.969 37.56 129.929 37.56ZM123.017 43.32V42.48H124.217L124.457 42.24H127.697L127.937 42.48H129.857V43.32H123.017ZM122.225 37.56C121.185 37.56 120.281 37.32 119.513 36.84C118.761 36.3601 118.177 35.68 117.761 34.8C117.361 33.904 117.161 32.84 117.161 31.608C117.161 30.376 117.361 29.312 117.761 28.416C118.177 27.504 118.761 26.8 119.513 26.304C120.281 25.808 121.185 25.56 122.225 25.56C123.089 25.56 123.833 25.76 124.457 26.16V27.48C124.201 27.256 123.953 27.104 123.713 27.024C123.489 26.928 123.265 26.88 123.041 26.88C122.369 26.88 121.817 27.232 121.385 27.936C120.969 28.624 120.761 29.752 120.761 31.32C120.761 32.888 120.969 34.104 121.385 34.968C121.817 35.816 122.369 36.24 123.041 36.24C123.265 36.24 123.489 36.192 123.713 36.096C123.953 36 124.201 35.848 124.457 35.64V36.864C124.153 37.072 123.809 37.2401 123.425 37.368C123.041 37.496 122.641 37.56 122.225 37.56ZM124.457 42.24V21.768H127.697V42.24H124.457ZM124.457 22.32L124.217 22.08H123.017V21.24C123.433 21.24 123.905 21.24 124.433 21.24C124.977 21.224 125.513 21.2 126.041 21.168C126.569 21.12 127.041 21.064 127.457 21L127.697 21.24V22.08L124.457 22.32Z" fill="url(#paint6_linear_113_154)"/>
<path d="M140.404 26.64C139.972 26.64 139.54 26.744 139.108 26.952C138.676 27.144 138.26 27.48 137.86 27.96C137.476 28.424 137.132 29.08 136.828 29.928L136.084 29.712L136.516 25.8H147.508L147.94 29.712L147.196 29.928C146.748 28.696 146.204 27.84 145.564 27.36C144.94 26.88 144.292 26.64 143.62 26.64H140.404ZM143.764 26.424V36.24L144.004 36.48H145.204V37.32H138.844V36.48H140.044L140.284 36.24V26.424H143.764Z" fill="url(#paint7_linear_113_154)"/>
<path d="M9.57768 7.74651L21.7183 35.4059L24.9236 47.7575L17.6479 37.1925L5.50729 9.53315L9.57768 7.74651Z" fill="url(#paint8_linear_113_154)"/>
<path d="M13.9885 5.00726C14.3397 4.85308 14.6906 4.87886 14.7723 5.06483C14.8539 5.2508 14.6353 5.52654 14.2841 5.68072L0.800895 11.5989C0.449642 11.7531 0.0987226 11.7273 0.0170939 11.5414C-0.0645349 11.3554 0.154038 11.0797 0.505291 10.9255L13.9885 5.00726Z" fill="#FFED7B"/>
<path d="M7.58369 9.42495C7.55104 9.35056 7.63847 9.24027 7.77897 9.1786C7.91947 9.11693 8.05984 9.12724 8.09249 9.20162L20.4487 37.3522C20.4814 37.4266 20.394 37.5369 20.2535 37.5986C20.113 37.6602 19.9726 37.6499 19.9399 37.5755L7.58369 9.42495Z" fill="#404040"/>
<path d="M5.68108 0.942842L8.51888 7.40805L5.97488 8.52469L3.13709 2.05949L5.68108 0.942842Z" fill="#600000"/>
<path d="M5.26724 0L5.42668 1.05451L3.39149 1.94782L2.72324 1.11665L5.26724 0Z" fill="#530000"/>
<path d="M23.0136 13.2L24.3097 18.96L23.1216 19.32C22.5456 18.048 21.8496 17.064 21.0336 16.368C20.2176 15.672 19.3056 15.18 18.2976 14.892C17.3136 14.604 16.2456 14.46 15.0936 14.46H13.9776L13.6176 14.82V35.7L13.9776 36.06H16.8576V37.32H5.69765V36.06H7.67765L8.03765 35.7V14.82L7.67765 14.46H5.69765V13.2H23.0136Z" fill="url(#paint9_linear_113_154)"/>
<defs>
<linearGradient id="paint0_linear_113_154" x1="0" y1="23.8787" x2="147.94" y2="23.8787" gradientUnits="userSpaceOnUse">
<stop offset="0.6875" stop-color="white"/>
<stop offset="1" stop-color="#05A5BE"/>
</linearGradient>
<linearGradient id="paint1_linear_113_154" x1="0" y1="23.8787" x2="147.94" y2="23.8787" gradientUnits="userSpaceOnUse">
<stop offset="0.6875" stop-color="white"/>
<stop offset="1" stop-color="#05A5BE"/>
</linearGradient>
<linearGradient id="paint2_linear_113_154" x1="0" y1="23.8787" x2="147.94" y2="23.8787" gradientUnits="userSpaceOnUse">
<stop offset="0.6875" stop-color="white"/>
<stop offset="1" stop-color="#05A5BE"/>
</linearGradient>
<linearGradient id="paint3_linear_113_154" x1="0" y1="23.8787" x2="147.94" y2="23.8787" gradientUnits="userSpaceOnUse">
<stop offset="0.6875" stop-color="white"/>
<stop offset="1" stop-color="#05A5BE"/>
</linearGradient>
<linearGradient id="paint4_linear_113_154" x1="0" y1="23.8787" x2="147.94" y2="23.8787" gradientUnits="userSpaceOnUse">
<stop offset="0.6875" stop-color="white"/>
<stop offset="1" stop-color="#05A5BE"/>
</linearGradient>
<linearGradient id="paint5_linear_113_154" x1="0" y1="23.8787" x2="147.94" y2="23.8787" gradientUnits="userSpaceOnUse">
<stop offset="0.6875" stop-color="white"/>
<stop offset="1" stop-color="#05A5BE"/>
</linearGradient>
<linearGradient id="paint6_linear_113_154" x1="0" y1="23.8787" x2="147.94" y2="23.8787" gradientUnits="userSpaceOnUse">
<stop offset="0.6875" stop-color="white"/>
<stop offset="1" stop-color="#05A5BE"/>
</linearGradient>
<linearGradient id="paint7_linear_113_154" x1="0" y1="23.8787" x2="147.94" y2="23.8787" gradientUnits="userSpaceOnUse">
<stop offset="0.6875" stop-color="white"/>
<stop offset="1" stop-color="#05A5BE"/>
</linearGradient>
<linearGradient id="paint8_linear_113_154" x1="0" y1="23.8787" x2="147.94" y2="23.8787" gradientUnits="userSpaceOnUse">
<stop stop-color="white"/>
<stop offset="0.331731"/>
</linearGradient>
<linearGradient id="paint9_linear_113_154" x1="25.6176" y1="25.3201" x2="4.61764" y2="25.3201" gradientUnits="userSpaceOnUse">
<stop stop-color="white"/>
<stop offset="1" stop-color="#05A5BE"/>
</linearGradient>
</defs>
</svg>
