<svg width="34" height="34" viewBox="0 0 34 34" fill="none" xmlns="http://www.w3.org/2000/svg">
<path fill-rule="evenodd" clip-rule="evenodd" d="M7.53407 16.4833C12.3903 14.3743 15.6231 12.9729 17.2464 12.2931C21.8668 10.3645 22.838 10.0315 23.4624 10.0176C23.6011 10.0176 23.9064 10.0454 24.1145 10.2119C24.281 10.3506 24.3226 10.531 24.3503 10.6697C24.3781 10.8085 24.4058 11.0998 24.3781 11.3218C24.1283 13.9581 23.0461 20.3543 22.4911 23.2958C22.2552 24.5445 21.7974 24.9608 21.3534 25.0024C20.3821 25.0857 19.6468 24.3642 18.7172 23.7537C17.2464 22.7963 16.4278 22.1997 14.9987 21.2562C13.3476 20.174 14.416 19.5774 15.3595 18.6061C15.6092 18.3564 19.8688 14.4714 19.952 14.1246C19.9659 14.0829 19.9659 13.9164 19.8688 13.8332C19.7717 13.7499 19.6329 13.7777 19.5219 13.8054C19.3693 13.8332 17.0383 15.3872 12.5013 18.4535C11.8353 18.9114 11.2386 19.1334 10.6975 19.1195C10.1009 19.1056 8.96317 18.7865 8.10293 18.509C7.06232 18.176 6.22983 17.9956 6.29921 17.4129C6.34083 17.1076 6.75708 16.8024 7.53407 16.4833Z" fill="#585858"/>
</svg>
